<svg width="100" height="100" xmlns="http://www.w3.org/2000/svg"><path d="M33.78 47.28c-9.192 4.956-18.4 9.876-27.59 14.84-.678.375-.85 1.382-.3 1.938.524.476 1.221.719 1.821 1.089 8.43 4.564 16.86 9.117 25.34 13.59.573.302 1.225.733 1.887.418 6.015-3.17 11.99-6.417 17.98-9.634 3.227-1.748 6.47-3.472 9.68-5.251.7-.427.778-1.537.112-2.031-.965-.618-2.015-1.107-3.016-1.67-1.164-.606-2.3-1.276-3.484-1.84-.74-.299-1.408.293-2.07.544-2.71 1.205-5.51 2.192-8.248 3.327-3.98 1.6-7.96 3.202-11.94 4.804-.341-.025-.71.052-1.041-.025-.36-.235-.206-.738-.23-1.093.156-1.393.917-2.611 1.383-3.911 1.595-3.938 3.18-7.881 4.742-11.83.259-.692-.213-1.433-.875-1.671-1.048-.542-2.067-1.15-3.132-1.65-.327-.148-.7-.087-1.02.05z" fill="#c1c1c1"/><path d="M17.83 73.26c-3.922 1.995-7.77 4.138-11.66 6.202-.764.414-.865 1.568-.164 2.093 4.328 2.382 8.707 4.688 13.05 7.044 4.92 2.636 9.826 5.312 14.76 7.927.898.392 1.679-.408 2.458-.74 8.78-4.713 17.57-9.424 26.34-14.15.85-.465.76-1.815-.11-2.206-3.864-2.053-7.69-4.183-11.59-6.168-.934-.264-1.689.517-2.496.849-4.583 2.416-9.118 4.927-13.72 7.31-.68.269-1.272-.392-1.867-.613-4.726-2.496-9.4-5.09-14.15-7.539-.291-.055-.564-.109-.853-.008z" fill="#606060"/><path d="M35.38 43.99a2.15 2.167 0 0 0-2.021 0L1.109 61.32a2.15 2.167 0 0 0 0 3.822l12.57 6.755-12.57 6.755a2.15 2.167 0 0 0 0 3.822l32.25 17.33a2.15 2.167 0 0 0 2.021 0l32.25-17.33a2.15 2.167 0 0 0 0-3.822l-12.56-6.755 12.56-6.755a2.15 2.167 0 0 0 0-3.822zm15.11 30.37 11.56 6.209-27.68 14.88-27.68-14.88 11.56-6.209 15.11 8.12a2.15 2.167 0 0 0 2.021 0zm-16.13 3.753L6.68 63.233l27.68-14.88 27.68 14.88z"/><path d="M83.46.555c2.41-1.771 3.946 1.146 5.521 2.478 3.571 3.64 7.285 7.155 10.77 10.88 1.077 2.278-1.612 3.575-2.819 5.079l-40.52 40.55c-3.164 1.673-6.644 2.738-9.937 4.162-4.095 1.639-8.19 3.278-12.28 4.917-3.948.686-2.83-3.502-1.711-5.51 2.505-6.266 5.01-12.53 7.515-18.8 2.194-2.744 4.935-5.044 7.353-7.606 12.04-12.05 24.08-24.09 36.12-36.14z"/><g stroke-width="1.251"><path d="M44.28 45.86c-1.14 1.328-1.404 3.233-2.19 4.795l-4.836 12.1c5.508-2.259 11.13-4.344 16.57-6.712-.102-.882-1.585-2.767-1.079-4.483-1.979.307-4.715-.412-4.3-2.93.566-1.737-.942-1.401-2.141-1.372-.859.002-1.748-.554-2.022-1.398z" fill="#f8cd89"/><path d="m86.25 23.59-9.859-9.866c-9.316 9.322-18.63 18.64-27.95 27.97-.54 1.678 1.038 1.236 2.15 1.261 3.228-.423 1.398 3.629 2.539 4.303 2.226-.46 4.394 1.137 3.911 3.514-.346 1.525 1.863.715 2.223-.176 8.995-9 17.99-18 26.99-27z" fill="#f0ff17"/><path d="m79.43 10.68 9.859 9.866 5.56-5.563-9.859-9.866-5.56 5.563z" fill="#ff8ca9"/></g></svg>