<svg width="256" height="256" version="1.1" viewBox="0 0 67.733 67.733" id="svg15" xml:space="preserve" xmlns:xlink="http://www.w3.org/1999/xlink" xmlns="http://www.w3.org/2000/svg"><defs id="defs7"><linearGradient id="linearGradient4618" x1="-15.014" x2="-.363" y1="50.707" y2="75.222" gradientUnits="userSpaceOnUse"><stop stop-color="#e81c24" offset="0" id="stop2"/><stop stop-color="#7c1315" offset="1" id="stop4"/></linearGradient><linearGradient xlink:href="#linearGradient4618" id="linearGradient425" gradientUnits="userSpaceOnUse" x1="-15.014" y1="50.707" x2="-.363" y2="75.222" gradientTransform="translate(48.836 -29.768) scale(1.2378)"/><linearGradient xlink:href="#linearGradient4618" id="linearGradient427" gradientUnits="userSpaceOnUse" x1="-15.014" y1="50.707" x2="-.363" y2="75.222" gradientTransform="translate(48.836 -29.768) scale(1.2378)"/></defs><rect style="fill:#fff;fill-opacity:1;stroke:#000;stroke-width:1.05833px;stroke-dasharray:none;stroke-opacity:1" id="rect3576" width="50.271" height="50.271" x="16.623" y="16.933" ry="6.251"/><path d="m21.208 52.005 43.087-13.278L6.667 5.273l44.818 33.102L24.24 46.35Z" id="path9" style="fill:url(#linearGradient425);stroke-width:1.2378px"/><path d="m3.44 7.51 20.308 25.263L9.09 62.463l9.638-2.97 11.524-26.494.5 6.952 11.937-3.084z" id="path11" style="fill:url(#linearGradient427);stroke-width:1.2378px"/><path id="path449" style="fill:#000;stroke:none;stroke-width:.793746px;stroke-dasharray:none;stroke-opacity:1" d="M52.201 24.244c-.36-.004-.72.013-1.08.053a8.883 8.883 0 0 0-7.214 5.445 8.858 8.858 0 0 0-.48 5.123 8.866 8.866 0 0 0 3.127 5.12 8.901 8.901 0 0 0 4.529 1.901c.469.058 1.575.057 2.03-.001 1.925-.247 3.521-.973 4.94-2.249a8.918 8.918 0 0 0 2.248-3.242l.102-.259.138.015c.311.033.634.085.872.141 2.167.906 2.616 2.867 2.631 4.402.003.239-.015 2.698-.015 9.578v9.26c0 .53.529.794.794.794.264 0 .793-.265.793-.794V40.746c0-2.91-1.532-4.991-3.175-5.821-.5-.193-.814-.355-1.5-.448l-.104-.014.029-.21a9.191 9.191 0 0 0-.063-2.747c-.537-2.981-2.622-5.52-5.455-6.645a8.82 8.82 0 0 0-3.147-.617zm-.015 1.717c.237.001.464.01.64.029a7.116 7.116 0 0 1 3.748 1.547c1.479 1.2 2.386 2.85 2.618 4.758a8.64 8.64 0 0 1-.003 1.607 7.1 7.1 0 0 1-2.18 4.367 7.096 7.096 0 0 1-3.866 1.883 7.97 7.97 0 0 1-1.395.064 7.083 7.083 0 0 1-4.213-1.641 8.872 8.872 0 0 1-1.102-1.148 7.018 7.018 0 0 1-1.465-4.545 7.058 7.058 0 0 1 1.552-4.242c.245-.31.815-.878 1.124-1.124a7.166 7.166 0 0 1 3.45-1.493 7.915 7.915 0 0 1 1.092-.062z"/><path style="fill:#000;stroke-width:.793746px;stroke:none;stroke-opacity:1;stroke-dasharray:none" d="M31.95 56.238c-1.097-.083-1.894-.251-2.764-.584-2.353-.9-4.488-2.822-6.14-5.53-.343-.562-.768-1.367-.91-1.726a.853.853 0 0 1 .504-1.137c.242-.085.382-.066.921.126 1.7.604 3.11.885 4.455.885 1.186 0 2.08-.195 2.959-.644.903-.461 1.595-1.135 2.006-1.955.336-.669.65-1.114 1.112-1.575a5.253 5.253 0 0 1 1.479-1.065 5.59 5.59 0 0 1 5.038.037c.307.157.718.423.98.635l.172.139.07-.057a5.732 5.732 0 0 1 2.105-1.12c1.964-.554 4.065-.01 5.484 1.42.446.448.794.939 1.093 1.539.217.437.437.743.783 1.093.88.888 2.05 1.4 3.507 1.532.382.035 1.396.015 1.806-.036 1.048-.129 2.109-.389 3.278-.803l.562-.199.195.01c.233.01.388.077.554.239a.772.772 0 0 1 .244.551c.013.242-.01.313-.283.866-1.034 2.096-2.578 4.035-4.218 5.297-1.061.817-2.16 1.383-3.329 1.717-3.135.897-6.506.074-10.05-2.454a5.023 5.023 0 0 0-.573-.346 6.037 6.037 0 0 1-1.033-.663l-.195-.16-.194.159a6.013 6.013 0 0 1-1.029.662c-.16.079-.408.227-.553.33-2.312 1.64-4.433 2.534-6.58 2.773-.302.033-1.226.061-1.457.044z" id="path445"/></svg>