<?xml version="1.0" encoding="UTF-8" standalone="no"?>
<svg
   height="350"
   width="350"
   viewBox="0 0 328.12592 328.12482"
   version="1.1"
   id="svg1"
   sodipodi:docname="itchio.svg"
   inkscape:version="1.3.2 (091e20ef0f, 2023-11-25, custom)"
   xmlns:inkscape="http://www.inkscape.org/namespaces/inkscape"
   xmlns:sodipodi="http://sodipodi.sourceforge.net/DTD/sodipodi-0.dtd"
   xmlns="http://www.w3.org/2000/svg"
   xmlns:svg="http://www.w3.org/2000/svg">
  <defs
     id="defs1" />
  <sodipodi:namedview
     id="namedview1"
     pagecolor="#ffffff"
     bordercolor="#000000"
     borderopacity="0.25"
     inkscape:showpageshadow="2"
     inkscape:pageopacity="0.0"
     inkscape:pagecheckerboard="0"
     inkscape:deskcolor="#d1d1d1"
     inkscape:zoom="1.4690824"
     inkscape:cx="73.855625"
     inkscape:cy="198.08283"
     inkscape:window-width="1920"
     inkscape:window-height="1002"
     inkscape:window-x="0"
     inkscape:window-y="0"
     inkscape:window-maximized="1"
     inkscape:current-layer="svg1" />
  <path
     d="m 73.366963,55.060456 c -10.703,6.355 -31.79,30.579999 -31.99,36.932999 v 10.515995 c 0,13.33 12.46,25.046 23.773,25.046 13.584,0 24.902,-11.258 24.903,-24.62 0,13.362 10.929997,24.62 24.514997,24.62 13.58601,0 24.16501,-11.258 24.16501,-24.62 0,13.362 11.622,24.62 25.20699,24.62 h 0.24601 c 13.58599,0 25.208,-11.258 25.208,-24.62 0,13.362 10.58,24.62 24.16399,24.62 13.585,0 24.515,-11.258 24.515,-24.62 0,13.362 11.32,24.62 24.903,24.62 11.313,0 23.773,-11.714 23.773,-25.046 V 91.993455 c -0.19999,-6.354 -21.28699,-30.579999 -31.988,-36.932999 -33.26599,-1.168 -56.32799,-1.37 -90.69899,-1.365 -34.37,0.003 -81.228008,0.54 -90.697008,1.365 z m 65.194007,66.216994 a 28.025,28.025 0 0 1 -4.78,6.155 c -5.128,5.014 -12.15701,8.122 -19.90601,8.122 a 28.482,28.482 0 0 1 -19.947997,-8.126 c -1.858,-1.82 -3.27,-3.766 -4.563,-6.032 l -0.006,0.004 c -1.292,2.27 -3.092,4.215 -4.954,6.037 a 28.5,28.5 0 0 1 -19.948,8.12 c -0.934,0 -1.906,-0.258 -2.692,-0.528 -1.092,11.372 -1.553,22.24 -1.716,30.164 l -0.002,0.045 c -0.02,4.024 -0.04,7.333 -0.06,11.93 0.210001,23.86 -2.363,77.334 10.520001,90.473 19.964,4.655 56.700006,6.775 93.555006,6.788 h 0.006 c 36.85399,-0.013 73.59,-2.133 93.554,-6.788 12.883,-13.14 10.31,-66.614 10.52,-90.474 -0.022,-4.596 -0.04,-7.905 -0.06,-11.93 l -0.003,-0.045 c -0.162,-7.926 -0.623,-18.793 -1.715,-30.165 -0.786,0.27 -1.757,0.528 -2.692,0.528 a 28.5,28.5 0 0 1 -19.948,-8.12 c -1.862,-1.822 -3.662,-3.766 -4.95501,-6.037 l -0.006,-0.004 c -1.294,2.266 -2.705,4.213 -4.56299,6.032 a 28.48,28.48 0 0 1 -19.947,8.125 c -7.748,0 -14.778,-3.11 -19.906,-8.123 a 28.025,28.025 0 0 1 -4.78001,-6.155 27.99,27.99 0 0 1 -4.73599,6.155 28.49,28.49 0 0 1 -19.95,8.124 c -0.27,0 -0.54,-0.012 -0.81,-0.02 h -0.007 c -0.27,0.008 -0.54001,0.02 -0.81301,0.02 a 28.49,28.49 0 0 1 -19.94999,-8.123 27.992,27.992 0 0 1 -4.736,-6.155 z m -20.48601,26.49 -0.002,0.01 h 0.015 c 8.11301,0.017 15.32001,0 24.25001,9.746 7.028,-0.737 14.372,-1.105 21.72199,-1.094 h 0.006 c 7.35,-0.01 14.694,0.357 21.723,1.094 8.93,-9.747 16.137,-9.73 24.25,-9.746 h 0.014 l -0.002,-0.01 c 3.833,0 19.166,0 29.85,30.007 l 11.476,41.165 c 8.504,30.624 -2.723,31.373 -16.727,31.4 -20.768,-0.773 -32.267,-15.855 -32.267,-30.935 -11.496,1.884 -24.907,2.826 -38.318,2.827 h -0.006 c -13.41199,0 -26.82299,-0.943 -38.31799,-2.827 0,15.08 -11.50001,30.162 -32.267008,30.935 -14.004,-0.027 -25.23,-0.775 -16.726,-31.4 l 11.479,-41.164 c 10.684,-30.007 26.016998,-30.007 29.849998,-30.007 z m 45.985,23.582 v 0.006 c -0.02,0.02 -21.86299,20.08 -25.78999,27.215 l 14.304,-0.573 v 12.474 c 0,0.584 5.74,0.346 11.486,0.08 h 0.006 c 5.74399,0.266 11.485,0.504 11.485,-0.08 v -12.474 l 14.304,0.573 c -3.928,-7.135 -25.79,-27.215 -25.79,-27.215 v -0.006 l -0.003,0.002 z"
     color="#000000"
     fill="#fff"
     id="path1"
     style="fill:#fa5c5c;fill-opacity:1" />
</svg>
