<svg version="1.0" id="svg2" width="85pt" height="85pt" viewBox="0 0 113.333 113.333" xml:space="preserve" xmlns:xlink="http://www.w3.org/1999/xlink" xmlns="http://www.w3.org/2000/svg"><defs id="defs4"><linearGradient id="linearGradient2795"><stop style="stop-color:#b8b8b8;stop-opacity:.498039" offset="0" id="stop2797"/><stop style="stop-color:#7f7f7f;stop-opacity:0" offset="1" id="stop2799"/></linearGradient><linearGradient id="linearGradient2787"><stop style="stop-color:#7f7f7f;stop-opacity:.5" offset="0" id="stop2789"/><stop style="stop-color:#7f7f7f;stop-opacity:0" offset="1" id="stop2791"/></linearGradient><linearGradient id="linearGradient3676"><stop style="stop-color:#b2b2b2;stop-opacity:.5" offset="0" id="stop3678"/><stop style="stop-color:#b3b3b3;stop-opacity:0" offset="1" id="stop3680"/></linearGradient><linearGradient id="linearGradient3236"><stop style="stop-color:#f4f4f4;stop-opacity:1" offset="0" id="stop3244"/><stop style="stop-color:white;stop-opacity:1" offset="1" id="stop3240"/></linearGradient><linearGradient id="linearGradient4671"><stop style="stop-color:#ffd43b;stop-opacity:1" offset="0" id="stop4673"/><stop style="stop-color:#ffe873;stop-opacity:1" offset="1" id="stop4675"/></linearGradient><linearGradient id="linearGradient4689"><stop style="stop-color:#5a9fd4;stop-opacity:1" offset="0" id="stop4691"/><stop style="stop-color:#306998;stop-opacity:1" offset="1" id="stop4693"/></linearGradient><linearGradient x1="224.24" y1="144.757" x2="-65.309" y2="144.757" id="linearGradient2987" xlink:href="#linearGradient4671" gradientUnits="userSpaceOnUse" gradientTransform="translate(100.27 99.611)"/><linearGradient x1="172.942" y1="77.476" x2="26.67" y2="76.313" id="linearGradient2990" xlink:href="#linearGradient4689" gradientUnits="userSpaceOnUse" gradientTransform="translate(100.27 99.611)"/><linearGradient xlink:href="#linearGradient4689" id="linearGradient2587" gradientUnits="userSpaceOnUse" gradientTransform="translate(100.27 99.611)" x1="172.942" y1="77.476" x2="26.67" y2="76.313"/><linearGradient xlink:href="#linearGradient4671" id="linearGradient2589" gradientUnits="userSpaceOnUse" gradientTransform="translate(100.27 99.611)" x1="224.24" y1="144.757" x2="-65.309" y2="144.757"/><linearGradient xlink:href="#linearGradient4689" id="linearGradient2248" gradientUnits="userSpaceOnUse" gradientTransform="translate(100.27 99.611)" x1="172.942" y1="77.476" x2="26.67" y2="76.313"/><linearGradient xlink:href="#linearGradient4671" id="linearGradient2250" gradientUnits="userSpaceOnUse" gradientTransform="translate(100.27 99.611)" x1="224.24" y1="144.757" x2="-65.309" y2="144.757"/><linearGradient xlink:href="#linearGradient4671" id="linearGradient2255" gradientUnits="userSpaceOnUse" gradientTransform="matrix(.56254 0 0 .56797 -11.597 -7.61)" x1="224.24" y1="144.757" x2="-65.309" y2="144.757"/><linearGradient xlink:href="#linearGradient4689" id="linearGradient2258" gradientUnits="userSpaceOnUse" gradientTransform="matrix(.56254 0 0 .56797 -11.597 -7.61)" x1="172.942" y1="76.176" x2="26.67" y2="76.313"/><radialGradient xlink:href="#linearGradient2795" id="radialGradient2801" cx="61.519" cy="132.286" fx="61.519" fy="132.286" r="29.037" gradientTransform="matrix(1 0 0 .17797 0 108.743)" gradientUnits="userSpaceOnUse"/></defs><g id="g9" transform="translate(0 2.997)"><g id="g5" transform="matrix(.15058 0 0 .15058 10.317 6.983)"><path d="M255.569 84.452c-.002-4.83-1.035-9.098-3.124-12.76-2.052-3.603-5.125-6.622-9.247-9.009-34.025-19.619-68.083-39.178-102.097-58.817-9.17-5.294-18.061-5.1-27.163.27-13.543 7.986-81.348 46.833-101.553 58.536C4.064 67.49.015 74.862.013 84.443 0 123.898.013 163.353 0 202.808c0 4.724.991 8.91 2.988 12.517 2.053 3.711 5.169 6.813 9.386 9.254 20.206 11.703 88.02 50.547 101.56 58.536 9.106 5.373 17.997 5.565 27.17.27 34.015-19.64 68.075-39.199 102.105-58.818 4.217-2.44 7.333-5.544 9.386-9.252 1.994-3.608 2.987-7.793 2.987-12.518 0 0 0-78.889-.013-118.345" fill="#a179dc" fill-rule="nonzero" id="path1"/><path d="M128.182 143.241 2.988 215.325c2.053 3.711 5.169 6.813 9.386 9.254 20.206 11.703 88.02 50.547 101.56 58.536 9.106 5.373 17.997 5.565 27.17.27 34.015-19.64 68.075-39.199 102.105-58.818 4.217-2.44 7.333-5.544 9.386-9.252l-124.413-72.074" fill="#280068" fill-rule="nonzero" id="path2"/><path d="M255.569 84.452c-.002-4.83-1.035-9.098-3.124-12.76l-124.263 71.55 124.413 72.073c1.994-3.608 2.985-7.793 2.987-12.518 0 0 0-78.889-.013-118.345" fill="#390091" fill-rule="nonzero" id="path3"/><path d="M201.892 116.294v13.474h13.474v-13.474h6.737v13.474h13.474v6.737h-13.474v13.473h13.474v6.737h-13.474v13.474h-6.737v-13.474h-13.474v13.474h-6.737v-13.474h-13.473v-6.737h13.473v-13.473h-13.473v-6.737h13.473v-13.474zm13.474 20.21h-13.474v13.474h13.474z" fill="#fff" id="path4"/><path d="M128.457 48.626c35.144 0 65.827 19.086 82.262 47.456l-.16-.273-41.35 23.808c-8.146-13.793-23.08-23.102-40.213-23.294l-.54-.003c-26.125 0-47.305 21.18-47.305 47.305a47.08 47.08 0 0 0 6.239 23.47c8.154 14.235 23.483 23.836 41.067 23.836 17.693 0 33.109-9.723 41.221-24.11l-.197.345 41.287 23.918c-16.255 28.13-46.518 47.157-81.253 47.536l-1.058.006c-35.255 0-66.025-19.204-82.419-47.723-8.003-13.923-12.582-30.065-12.582-47.277 0-52.466 42.532-95 95-95z" fill="#fff" fill-rule="nonzero" id="path5"/></g><g id="g2" transform="matrix(.03704 0 0 .03704 64.045 61.386)"><path fill="#f0db4f" d="M0 0h1052v1052H0Z" id="path1-6"/><path d="M965.9 801.1c-7.7-48-39-88.3-131.7-125.9-32.2-14.8-68.1-25.399-78.8-49.8-3.8-14.2-4.3-22.2-1.9-30.8 6.9-27.9 40.2-36.6 66.6-28.6 17 5.7 33.1 18.801 42.8 39.7 45.4-29.399 45.3-29.2 77-49.399-11.6-18-17.8-26.301-25.4-34-27.3-30.5-64.5-46.2-124-45-10.3 1.3-20.699 2.699-31 4-29.699 7.5-58 23.1-74.6 44-49.8 56.5-35.6 155.399 25 196.1 59.7 44.8 147.4 55 158.6 96.9 10.9 51.3-37.699 67.899-86 62-35.6-7.4-55.399-25.5-76.8-58.4-39.399 22.8-39.399 22.8-79.899 46.1 9.6 21 19.699 30.5 35.8 48.7 76.2 77.3 266.899 73.5 301.1-43.5 1.399-4.001 10.6-30.801 3.199-72.101zm-394-317.6h-98.4c0 85-.399 169.4-.399 254.4 0 54.1 2.8 103.7-6 118.9-14.4 29.899-51.7 26.2-68.7 20.399-17.3-8.5-26.1-20.6-36.3-37.699-2.8-4.9-4.9-8.7-5.601-9-26.699 16.3-53.3 32.699-80 49 13.301 27.3 32.9 51 58 66.399 37.5 22.5 87.9 29.4 140.601 17.3 34.3-10 63.899-30.699 79.399-62.199 22.4-41.3 17.6-91.3 17.4-146.6.5-90.2 0-180.4 0-270.9z" fill="#323330" id="path2-7"/></g><g id="g7" transform="matrix(1.56862 0 0 1.56864 -16.31 -34.412)"><path style="fill:#fff;fill-opacity:1;stroke:#000;stroke-opacity:1" d="M23.242 65.493a2 2 0 0 0-2 2v12a2 2 0 0 0 2 2h12a2 2 0 0 0 2-2v-12a2 2 0 0 0-2-2z" id="path6"/><path d="M29.242 69.493a.5.5 0 0 1 .5.5v3h3a.5.5 0 0 1 0 1h-3v3a.5.5 0 0 1-1 0v-3h-3a.5.5 0 0 1 0-1h3v-3a.5.5 0 0 1 .5-.5z" id="path2-9" style="fill:#000;fill-opacity:1"/></g><g id="g8" transform="translate(10.195 -17.755)"><path style="fill:#fff;fill-opacity:1;stroke:#000;stroke-width:1.56863px;stroke-opacity:1" d="M63.924 33.816a3.137 3.137 0 0 0-3.137 3.138v18.823a3.137 3.137 0 0 0 3.137 3.137h18.824a3.137 3.137 0 0 0 3.137-3.137V36.954a3.137 3.137 0 0 0-3.137-3.138z" id="path6-7"/><path d="M67.061 46.365a.784.784 0 0 1 .785-.784h10.98a.784.784 0 0 1 0 1.569h-10.98a.784.784 0 0 1-.785-.785z" id="path2-5" style="fill:#000;stroke-width:1.56863px"/></g></g></svg>