<svg version="1.0" id="svg2" width="85pt" height="85pt" viewBox="0 0 113.333 113.333" xmlns:xlink="http://www.w3.org/1999/xlink" xmlns="http://www.w3.org/2000/svg"><defs id="defs4"><linearGradient id="linearGradient2795"><stop style="stop-color:#b8b8b8;stop-opacity:.498039" offset="0" id="stop2797"/><stop style="stop-color:#7f7f7f;stop-opacity:0" offset="1" id="stop2799"/></linearGradient><linearGradient id="linearGradient2787"><stop style="stop-color:#7f7f7f;stop-opacity:.5" offset="0" id="stop2789"/><stop style="stop-color:#7f7f7f;stop-opacity:0" offset="1" id="stop2791"/></linearGradient><linearGradient id="linearGradient3676"><stop style="stop-color:#b2b2b2;stop-opacity:.5" offset="0" id="stop3678"/><stop style="stop-color:#b3b3b3;stop-opacity:0" offset="1" id="stop3680"/></linearGradient><linearGradient id="linearGradient3236"><stop style="stop-color:#f4f4f4;stop-opacity:1" offset="0" id="stop3244"/><stop style="stop-color:white;stop-opacity:1" offset="1" id="stop3240"/></linearGradient><linearGradient id="linearGradient4671"><stop style="stop-color:#ffd43b;stop-opacity:1" offset="0" id="stop4673"/><stop style="stop-color:#ffe873;stop-opacity:1" offset="1" id="stop4675"/></linearGradient><linearGradient id="linearGradient4689"><stop style="stop-color:#5a9fd4;stop-opacity:1" offset="0" id="stop4691"/><stop style="stop-color:#306998;stop-opacity:1" offset="1" id="stop4693"/></linearGradient><linearGradient x1="224.24" y1="144.757" x2="-65.309" y2="144.757" id="linearGradient2987" xlink:href="#linearGradient4671" gradientUnits="userSpaceOnUse" gradientTransform="translate(100.27 99.611)"/><linearGradient x1="172.942" y1="77.476" x2="26.67" y2="76.313" id="linearGradient2990" xlink:href="#linearGradient4689" gradientUnits="userSpaceOnUse" gradientTransform="translate(100.27 99.611)"/><linearGradient xlink:href="#linearGradient4689" id="linearGradient2587" gradientUnits="userSpaceOnUse" gradientTransform="translate(100.27 99.611)" x1="172.942" y1="77.476" x2="26.67" y2="76.313"/><linearGradient xlink:href="#linearGradient4671" id="linearGradient2589" gradientUnits="userSpaceOnUse" gradientTransform="translate(100.27 99.611)" x1="224.24" y1="144.757" x2="-65.309" y2="144.757"/><linearGradient xlink:href="#linearGradient4689" id="linearGradient2248" gradientUnits="userSpaceOnUse" gradientTransform="translate(100.27 99.611)" x1="172.942" y1="77.476" x2="26.67" y2="76.313"/><linearGradient xlink:href="#linearGradient4671" id="linearGradient2250" gradientUnits="userSpaceOnUse" gradientTransform="translate(100.27 99.611)" x1="224.24" y1="144.757" x2="-65.309" y2="144.757"/><linearGradient xlink:href="#linearGradient4671" id="linearGradient2255" gradientUnits="userSpaceOnUse" gradientTransform="matrix(.56254 0 0 .56797 -11.597 -7.61)" x1="224.24" y1="144.757" x2="-65.309" y2="144.757"/><linearGradient xlink:href="#linearGradient4689" id="linearGradient2258" gradientUnits="userSpaceOnUse" gradientTransform="matrix(.56254 0 0 .56797 -11.597 -7.61)" x1="172.942" y1="76.176" x2="26.67" y2="76.313"/><linearGradient xlink:href="#linearGradient4671" id="linearGradient1475" gradientUnits="userSpaceOnUse" gradientTransform="matrix(.56254 0 0 .56797 -14.991 -11.702)" x1="150.961" y1="192.352" x2="112.031" y2="137.273"/><linearGradient xlink:href="#linearGradient4689" id="linearGradient1478" gradientUnits="userSpaceOnUse" gradientTransform="matrix(.56254 0 0 .56797 -14.991 -11.702)" x1="26.649" y1="20.604" x2="135.665" y2="114.398"/><radialGradient xlink:href="#linearGradient2795" id="radialGradient2801" cx="61.519" cy="132.286" fx="61.519" fy="132.286" r="29.037" gradientTransform="matrix(1 0 0 .17797 0 108.743)" gradientUnits="userSpaceOnUse"/></defs><g id="g1" transform="translate(1.086 .472)"><path style="fill:url(#linearGradient1478);fill-opacity:1" d="M54.919 0c-4.584.022-8.961.413-12.813 1.095C30.76 3.099 28.7 7.295 28.7 15.032v10.219h26.813v3.406H18.638c-7.793 0-14.616 4.684-16.75 13.594-2.462 10.213-2.571 16.586 0 27.25 1.905 7.938 6.457 13.594 14.25 13.594h9.218v-12.25c0-8.85 7.657-16.657 16.75-16.657h26.782c7.454 0 13.406-6.138 13.406-13.625v-25.53c0-7.267-6.13-12.726-13.406-13.938C64.282.328 59.502-.02 54.918 0Zm-14.5 8.22c2.77 0 5.031 2.298 5.031 5.125 0 2.816-2.262 5.093-5.031 5.093-2.78 0-5.031-2.277-5.031-5.093 0-2.827 2.251-5.125 5.03-5.125z" id="path1948"/><path style="fill:url(#linearGradient1475);fill-opacity:1" d="M85.638 28.657v11.906c0 9.231-7.826 17-16.75 17H42.106c-7.336 0-13.406 6.279-13.406 13.625V96.72c0 7.266 6.319 11.54 13.406 13.625 8.488 2.495 16.627 2.946 26.782 0 6.75-1.955 13.406-5.888 13.406-13.625V86.5H55.513v-3.405H95.7c7.793 0 10.696-5.436 13.406-13.594 2.8-8.399 2.68-16.476 0-27.25-1.925-7.758-5.604-13.594-13.406-13.594zM70.575 93.313c2.78 0 5.031 2.278 5.031 5.094 0 2.827-2.251 5.125-5.031 5.125-2.77 0-5.031-2.298-5.031-5.125 0-2.816 2.261-5.094 5.031-5.094z" id="path1950"/></g></svg>