<?xml version="1.0" encoding="UTF-8" standalone="no"?>
<svg
   width="16"
   height="16"
   fill="currentColor"
   class="bi bi-window"
   viewBox="0 0 16 16"
   version="1.1"
   id="svg8996"
   sodipodi:docname="xdialog-icon.svg"
   xml:space="preserve"
   inkscape:version="1.2.2 (b0a8486541, 2022-12-01)"
   xmlns:inkscape="http://www.inkscape.org/namespaces/inkscape"
   xmlns:sodipodi="http://sodipodi.sourceforge.net/DTD/sodipodi-0.dtd"
   xmlns:xlink="http://www.w3.org/1999/xlink"
   xmlns="http://www.w3.org/2000/svg"
   xmlns:svg="http://www.w3.org/2000/svg"><defs
     id="defs9000"><linearGradient
       id="linearGradient2795"><stop
         style="stop-color:#b8b8b8;stop-opacity:0.49803922;"
         offset="0"
         id="stop2797" /><stop
         style="stop-color:#7f7f7f;stop-opacity:0;"
         offset="1"
         id="stop2799" /></linearGradient><linearGradient
       id="linearGradient2787"><stop
         style="stop-color:#7f7f7f;stop-opacity:0.5;"
         offset="0"
         id="stop2789" /><stop
         style="stop-color:#7f7f7f;stop-opacity:0;"
         offset="1"
         id="stop2791" /></linearGradient><linearGradient
       id="linearGradient3676"><stop
         style="stop-color:#b2b2b2;stop-opacity:0.5;"
         offset="0"
         id="stop3678" /><stop
         style="stop-color:#b3b3b3;stop-opacity:0;"
         offset="1"
         id="stop3680" /></linearGradient><linearGradient
       id="linearGradient3236"><stop
         style="stop-color:#f4f4f4;stop-opacity:1"
         offset="0"
         id="stop3244" /><stop
         style="stop-color:white;stop-opacity:1"
         offset="1"
         id="stop3240" /></linearGradient><linearGradient
       id="linearGradient4671"><stop
         style="stop-color:#ffd43b;stop-opacity:1;"
         offset="0"
         id="stop4673" /><stop
         style="stop-color:#ffe873;stop-opacity:1"
         offset="1"
         id="stop4675" /></linearGradient><linearGradient
       id="linearGradient4689"><stop
         style="stop-color:#5a9fd4;stop-opacity:1;"
         offset="0"
         id="stop4691" /><stop
         style="stop-color:#306998;stop-opacity:1;"
         offset="1"
         id="stop4693" /></linearGradient><linearGradient
       x1="224.23996"
       y1="144.75717"
       x2="-65.308502"
       y2="144.75717"
       id="linearGradient2987"
       xlink:href="#linearGradient4671"
       gradientUnits="userSpaceOnUse"
       gradientTransform="translate(100.2702,99.61116)" /><linearGradient
       x1="172.94208"
       y1="77.475983"
       x2="26.670298"
       y2="76.313133"
       id="linearGradient2990"
       xlink:href="#linearGradient4689"
       gradientUnits="userSpaceOnUse"
       gradientTransform="translate(100.2702,99.61116)" /><linearGradient
       inkscape:collect="always"
       xlink:href="#linearGradient4671"
       id="linearGradient2255"
       gradientUnits="userSpaceOnUse"
       gradientTransform="matrix(0.562541,0,0,0.567972,-11.5974,-7.60954)"
       x1="224.23996"
       y1="144.75717"
       x2="-65.308502"
       y2="144.75717" /><linearGradient
       inkscape:collect="always"
       xlink:href="#linearGradient4689"
       id="linearGradient2258"
       gradientUnits="userSpaceOnUse"
       gradientTransform="matrix(0.562541,0,0,0.567972,-11.5974,-7.60954)"
       x1="172.94208"
       y1="76.176224"
       x2="26.670298"
       y2="76.313133" /><radialGradient
       inkscape:collect="always"
       xlink:href="#linearGradient2795"
       id="radialGradient2801"
       cx="61.518883"
       cy="132.28575"
       fx="61.518883"
       fy="132.28575"
       r="29.036913"
       gradientTransform="matrix(1,0,0,0.177966,0,108.7434)"
       gradientUnits="userSpaceOnUse" /><linearGradient
       inkscape:collect="always"
       xlink:href="#linearGradient4671"
       id="linearGradient1475"
       gradientUnits="userSpaceOnUse"
       gradientTransform="matrix(0.03542407,0,0,0.03576607,3.555986,5.7244301)"
       x1="150.96111"
       y1="192.35176"
       x2="112.03144"
       y2="137.27299" /><linearGradient
       inkscape:collect="always"
       xlink:href="#linearGradient4689"
       id="linearGradient1478"
       gradientUnits="userSpaceOnUse"
       gradientTransform="matrix(0.03542407,0,0,0.03576607,3.555986,5.7244301)"
       x1="26.648937"
       y1="20.603781"
       x2="135.66525"
       y2="114.39767" /></defs><sodipodi:namedview
     id="namedview8998"
     pagecolor="#ffffff"
     bordercolor="#000000"
     borderopacity="0.25"
     inkscape:showpageshadow="2"
     inkscape:pageopacity="0.0"
     inkscape:pagecheckerboard="0"
     inkscape:deskcolor="#d1d1d1"
     showgrid="true"
     inkscape:zoom="18.185903"
     inkscape:cx="-10.337678"
     inkscape:cy="11.684875"
     inkscape:window-width="1920"
     inkscape:window-height="1002"
     inkscape:window-x="0"
     inkscape:window-y="0"
     inkscape:window-maximized="1"
     inkscape:current-layer="svg8996"><inkscape:grid
       type="xygrid"
       id="grid9182"
       empspacing="8" /></sodipodi:namedview><rect
     style="fill:#ffffff;fill-opacity:1;stroke:none;stroke-width:1;stroke-linecap:round;stroke-linejoin:round;stroke-dasharray:none;stroke-opacity:1"
     id="rect20967"
     width="14"
     height="12"
     x="1"
     y="2" /><path
     d="M2.5 4a.5.5 0 1 0 0-1 .5.5 0 0 0 0 1zm2-.5a.5.5 0 1 1-1 0 .5.5 0 0 1 1 0zm1 .5a.5.5 0 1 0 0-1 .5.5 0 0 0 0 1z"
     id="path8992" /><path
     d="M2 1a2 2 0 0 0-2 2v10a2 2 0 0 0 2 2h12a2 2 0 0 0 2-2V3a2 2 0 0 0-2-2H2zm13 2v2H1V3a1 1 0 0 1 1-1h12a1 1 0 0 1 1 1zM2 14a1 1 0 0 1-1-1V6h14v7a1 1 0 0 1-1 1H2z"
     id="path8994" /><path
     style="fill:url(#linearGradient1478);fill-opacity:1;stroke-width:0.0629715"
     d="M 7.9583197,6.4614042 C 7.66968,6.4627455 7.3940356,6.4873622 7.1514969,6.5302793 6.4370083,6.656506 6.3072849,6.9207092 6.3072849,7.407945 V 8.0514353 H 7.995709 V 8.2659321 H 6.3072849 5.6736338 c -0.490703,0 -0.9203767,0.2949408 -1.0547731,0.8560192 -0.1550246,0.6431261 -0.1619007,1.0444477 0,1.7159747 0.1200193,0.499858 0.4066414,0.856019 0.8973443,0.856019 h 0.5805188 v -0.771401 c 0,-0.557292 0.4821821,-1.0488699 1.0547731,-1.04887 h 1.6864563 c 0.4694497,0 0.8442123,-0.3865296 0.8442121,-0.8579871 V 7.407945 c 0,-0.4575725 -0.3860142,-0.8012987 -0.8442121,-0.8776657 C 8.5479072,6.4819974 8.2469593,6.460063 7.9583197,6.4614042 Z M 7.0452325,6.9789514 c 0.1744026,0 0.3168255,0.1447493 0.3168255,0.3227291 -1e-7,0.177349 -0.1424229,0.3207613 -0.3168255,0.3207613 C 6.8702046,7.6224417 6.728407,7.4790295 6.728407,7.3016805 6.7284069,7.1237008 6.8702046,6.9789514 7.0452325,6.9789514 Z"
     id="path1948" /><path
     style="fill:url(#linearGradient1475);fill-opacity:1;stroke-width:0.0629715"
     d="m 9.8927263,8.2659321 v 0.7497548 c 0,0.5812747 -0.4928085,1.0705161 -1.0547731,1.0705161 H 7.1514969 c -0.4619486,0 -0.844212,0.395366 -0.844212,0.857987 v 1.607742 c 0,0.457572 0.3978911,0.726712 0.844212,0.857987 0.5344602,0.157152 1.0469796,0.185554 1.6864563,0 0.4250676,-0.123071 0.8442123,-0.370752 0.8442121,-0.857987 v -0.64349 H 7.995709 v -0.214497 h 1.6864563 0.8442127 c 0.490703,0 0.673559,-0.342276 0.844211,-0.856019 0.176278,-0.528891 0.168778,-1.0375053 0,-1.7159747 C 11.24932,8.6334534 11.017705,8.2659321 10.526378,8.2659321 Z M 8.9442177,12.337435 c 0.175028,0 0.3168255,0.143413 0.3168255,0.320761 -10e-8,0.17798 -0.1417977,0.322729 -0.3168255,0.322729 -0.1744028,0 -0.3168255,-0.144749 -0.3168255,-0.322729 1e-7,-0.177348 0.1424225,-0.320761 0.3168255,-0.320761 z"
     id="path1950" /></svg>
