<svg width="16" height="16" fill="currentColor" class="bi bi-window" version="1.1" id="svg8996" xml:space="preserve" xmlns:xlink="http://www.w3.org/1999/xlink" xmlns="http://www.w3.org/2000/svg"><defs id="defs9000"><linearGradient id="linearGradient2795"><stop style="stop-color:#b8b8b8;stop-opacity:.498039" offset="0" id="stop2797"/><stop style="stop-color:#7f7f7f;stop-opacity:0" offset="1" id="stop2799"/></linearGradient><linearGradient id="linearGradient2787"><stop style="stop-color:#7f7f7f;stop-opacity:.5" offset="0" id="stop2789"/><stop style="stop-color:#7f7f7f;stop-opacity:0" offset="1" id="stop2791"/></linearGradient><linearGradient id="linearGradient3676"><stop style="stop-color:#b2b2b2;stop-opacity:.5" offset="0" id="stop3678"/><stop style="stop-color:#b3b3b3;stop-opacity:0" offset="1" id="stop3680"/></linearGradient><linearGradient id="linearGradient3236"><stop style="stop-color:#f4f4f4;stop-opacity:1" offset="0" id="stop3244"/><stop style="stop-color:white;stop-opacity:1" offset="1" id="stop3240"/></linearGradient><linearGradient id="linearGradient4671"><stop style="stop-color:#ffd43b;stop-opacity:1" offset="0" id="stop4673"/><stop style="stop-color:#ffe873;stop-opacity:1" offset="1" id="stop4675"/></linearGradient><linearGradient id="linearGradient4689"><stop style="stop-color:#5a9fd4;stop-opacity:1" offset="0" id="stop4691"/><stop style="stop-color:#306998;stop-opacity:1" offset="1" id="stop4693"/></linearGradient><linearGradient x1="224.24" y1="144.757" x2="-65.309" y2="144.757" id="linearGradient2987" xlink:href="#linearGradient4671" gradientUnits="userSpaceOnUse" gradientTransform="translate(100.27 99.611)"/><linearGradient x1="172.942" y1="77.476" x2="26.67" y2="76.313" id="linearGradient2990" xlink:href="#linearGradient4689" gradientUnits="userSpaceOnUse" gradientTransform="translate(100.27 99.611)"/><linearGradient xlink:href="#linearGradient4671" id="linearGradient2255" gradientUnits="userSpaceOnUse" gradientTransform="matrix(.56254 0 0 .56797 -11.597 -7.61)" x1="224.24" y1="144.757" x2="-65.309" y2="144.757"/><linearGradient xlink:href="#linearGradient4689" id="linearGradient2258" gradientUnits="userSpaceOnUse" gradientTransform="matrix(.56254 0 0 .56797 -11.597 -7.61)" x1="172.942" y1="76.176" x2="26.67" y2="76.313"/><linearGradient xlink:href="#linearGradient4671" id="linearGradient1475" gradientUnits="userSpaceOnUse" gradientTransform="matrix(.03542 0 0 .03577 3.556 5.724)" x1="150.961" y1="192.352" x2="112.031" y2="137.273"/><linearGradient xlink:href="#linearGradient4689" id="linearGradient1478" gradientUnits="userSpaceOnUse" gradientTransform="matrix(.03542 0 0 .03577 3.556 5.724)" x1="26.649" y1="20.604" x2="135.665" y2="114.398"/><radialGradient xlink:href="#linearGradient2795" id="radialGradient2801" cx="61.519" cy="132.286" fx="61.519" fy="132.286" r="29.037" gradientTransform="matrix(1 0 0 .17797 0 108.743)" gradientUnits="userSpaceOnUse"/></defs><path d="M2 1a2 2 0 0 0-2 2v10a2 2 0 0 0 2 2h12a2 2 0 0 0 2-2V3a2 2 0 0 0-2-2Z" id="path8994-6" style="fill:#f8f8f8;fill-opacity:1"/><path d="M2.5 4a.5.5 0 1 0 0-1 .5.5 0 0 0 0 1zm2-.5a.5.5 0 1 1-1 0 .5.5 0 0 1 1 0zm1 .5a.5.5 0 1 0 0-1 .5.5 0 0 0 0 1z" id="path8992"/><path d="M2 1a2 2 0 0 0-2 2v10a2 2 0 0 0 2 2h12a2 2 0 0 0 2-2V3a2 2 0 0 0-2-2H2zm13 2v2H1V3a1 1 0 0 1 1-1h12a1 1 0 0 1 1 1zM2 14a1 1 0 0 1-1-1V6h14v7a1 1 0 0 1-1 1H2z" id="path8994"/><path style="fill:url(#linearGradient1478);fill-opacity:1;stroke-width:.0629715px" d="M7.958 6.461a4.821 4.821 0 0 0-.807.07c-.714.126-.844.39-.844.877v.643h1.689v.215H5.674c-.491 0-.92.295-1.055.856-.155.643-.162 1.044 0 1.716.12.5.407.856.897.856h.58v-.771c0-.558.483-1.05 1.055-1.05h1.687a.85.85 0 0 0 .844-.857V7.408c0-.458-.386-.801-.844-.878a5.266 5.266 0 0 0-.88-.069Zm-.913.518a.32.32 0 0 1 .317.323.32.32 0 0 1-.317.32.319.319 0 0 1-.317-.32.32.32 0 0 1 .317-.323Z" id="path1948"/><path style="fill:url(#linearGradient1475);fill-opacity:1;stroke-width:.0629715px" d="M9.893 8.266v.75c0 .581-.493 1.07-1.055 1.07H7.151a.861.861 0 0 0-.844.858v1.608c0 .458.398.727.844.858a2.825 2.825 0 0 0 1.687 0c.425-.123.844-.37.844-.858v-.644H7.996v-.214h2.53c.491 0 .674-.342.845-.856.176-.529.168-1.038 0-1.716-.122-.489-.353-.856-.845-.856Zm-.949 4.071c.175 0 .317.144.317.321a.32.32 0 0 1-.317.323.32.32 0 0 1-.317-.323.32.32 0 0 1 .317-.32z" id="path1950"/></svg>