<?xml version="1.0" encoding="UTF-8"?>
<svg class="bi bi-chat-square-dots" width="16" height="16" fill="currentColor" version="1.1" viewBox="0 0 16 16" xmlns="http://www.w3.org/2000/svg">
 <path d="m14 3c0.5523 0 1 0.4477 1 1v8c0 0.5523-0.4477 1-1 1h-2.5-7-2.5c-0.5523 0-1-0.4477-1-1v-8c0-0.5523 0.4477-1 1-1zm-12-1c-1.105 0-2 0.8954-2 2v8c0 1.105 0.8954 2 2 2h2.5 7 2.5c1.105 0 2-0.8954 2-2v-8c0-1.105-0.8954-2-2-2z"/>
 <path d="m5 8a1 1 0 1 1-2 0 1 1 0 0 1 2 0m4 0a1 1 0 1 1-2 0 1 1 0 0 1 2 0m4 0a1 1 0 1 1-2 0 1 1 0 0 1 2 0"/>
</svg>
