<?xml version="1.0" encoding="UTF-8" standalone="no"?>
<!-- Created with Inkscape (http://www.inkscape.org/) -->

<svg
   version="1.0"
   id="svg2"
   width="85pt"
   height="85pt"
   viewBox="0 0 113.33333 113.33333"
   xml:space="preserve"
   xmlns:xlink="http://www.w3.org/1999/xlink"
   xmlns="http://www.w3.org/2000/svg"
   xmlns:svg="http://www.w3.org/2000/svg"
   xmlns:rdf="http://www.w3.org/1999/02/22-rdf-syntax-ns#"
   xmlns:cc="http://creativecommons.org/ns#"
   xmlns:dc="http://purl.org/dc/elements/1.1/"><metadata
     id="metadata371"><rdf:RDF><cc:Work
         rdf:about=""><dc:format>image/svg+xml</dc:format><dc:type
           rdf:resource="http://purl.org/dc/dcmitype/StillImage" /></cc:Work></rdf:RDF></metadata><defs
     id="defs4"><linearGradient
       id="linearGradient2795"><stop
         style="stop-color:#b8b8b8;stop-opacity:0.49803922;"
         offset="0"
         id="stop2797" /><stop
         style="stop-color:#7f7f7f;stop-opacity:0;"
         offset="1"
         id="stop2799" /></linearGradient><linearGradient
       id="linearGradient2787"><stop
         style="stop-color:#7f7f7f;stop-opacity:0.5;"
         offset="0"
         id="stop2789" /><stop
         style="stop-color:#7f7f7f;stop-opacity:0;"
         offset="1"
         id="stop2791" /></linearGradient><linearGradient
       id="linearGradient3676"><stop
         style="stop-color:#b2b2b2;stop-opacity:0.5;"
         offset="0"
         id="stop3678" /><stop
         style="stop-color:#b3b3b3;stop-opacity:0;"
         offset="1"
         id="stop3680" /></linearGradient><linearGradient
       id="linearGradient3236"><stop
         style="stop-color:#f4f4f4;stop-opacity:1"
         offset="0"
         id="stop3244" /><stop
         style="stop-color:white;stop-opacity:1"
         offset="1"
         id="stop3240" /></linearGradient><linearGradient
       id="linearGradient4671"><stop
         style="stop-color:#ffd43b;stop-opacity:1;"
         offset="0"
         id="stop4673" /><stop
         style="stop-color:#ffe873;stop-opacity:1"
         offset="1"
         id="stop4675" /></linearGradient><linearGradient
       id="linearGradient4689"><stop
         style="stop-color:#5a9fd4;stop-opacity:1;"
         offset="0"
         id="stop4691" /><stop
         style="stop-color:#306998;stop-opacity:1;"
         offset="1"
         id="stop4693" /></linearGradient><linearGradient
       x1="224.23996"
       y1="144.75717"
       x2="-65.308502"
       y2="144.75717"
       id="linearGradient2987"
       xlink:href="#linearGradient4671"
       gradientUnits="userSpaceOnUse"
       gradientTransform="translate(100.2702,99.61116)" /><linearGradient
       x1="172.94208"
       y1="77.475983"
       x2="26.670298"
       y2="76.313133"
       id="linearGradient2990"
       xlink:href="#linearGradient4689"
       gradientUnits="userSpaceOnUse"
       gradientTransform="translate(100.2702,99.61116)" /><linearGradient
       xlink:href="#linearGradient4689"
       id="linearGradient2587"
       gradientUnits="userSpaceOnUse"
       gradientTransform="translate(100.2702,99.61116)"
       x1="172.94208"
       y1="77.475983"
       x2="26.670298"
       y2="76.313133" /><linearGradient
       xlink:href="#linearGradient4671"
       id="linearGradient2589"
       gradientUnits="userSpaceOnUse"
       gradientTransform="translate(100.2702,99.61116)"
       x1="224.23996"
       y1="144.75717"
       x2="-65.308502"
       y2="144.75717" /><linearGradient
       xlink:href="#linearGradient4689"
       id="linearGradient2248"
       gradientUnits="userSpaceOnUse"
       gradientTransform="translate(100.2702,99.61116)"
       x1="172.94208"
       y1="77.475983"
       x2="26.670298"
       y2="76.313133" /><linearGradient
       xlink:href="#linearGradient4671"
       id="linearGradient2250"
       gradientUnits="userSpaceOnUse"
       gradientTransform="translate(100.2702,99.61116)"
       x1="224.23996"
       y1="144.75717"
       x2="-65.308502"
       y2="144.75717" /><linearGradient
       xlink:href="#linearGradient4671"
       id="linearGradient2255"
       gradientUnits="userSpaceOnUse"
       gradientTransform="matrix(0.562541,0,0,0.567972,-11.5974,-7.60954)"
       x1="224.23996"
       y1="144.75717"
       x2="-65.308502"
       y2="144.75717" /><linearGradient
       xlink:href="#linearGradient4689"
       id="linearGradient2258"
       gradientUnits="userSpaceOnUse"
       gradientTransform="matrix(0.562541,0,0,0.567972,-11.5974,-7.60954)"
       x1="172.94208"
       y1="76.176224"
       x2="26.670298"
       y2="76.313133" /><radialGradient
       xlink:href="#linearGradient2795"
       id="radialGradient2801"
       cx="61.518883"
       cy="132.28575"
       fx="61.518883"
       fy="132.28575"
       r="29.036913"
       gradientTransform="matrix(1,0,0,0.177966,0,108.7434)"
       gradientUnits="userSpaceOnUse" /></defs><g
     id="g9"
     transform="translate(0,2.9966677)"><g
       id="g5"
       transform="matrix(0.15057911,0,0,0.15057911,10.317202,6.9832695)"><path
         d="m 255.569,84.452376 c -0.002,-4.83 -1.035,-9.098 -3.124,-12.761 -2.052,-3.602 -5.125,-6.621 -9.247,-9.008 -34.025,-19.619 -68.083,-39.178 -102.097,-58.8169999 -9.17,-5.294 -18.061,-5.101 -27.163,0.2689999 -13.543,7.987 -81.348,46.834 -101.553,58.537 -8.321,4.817 -12.37,12.189 -12.372,21.771 C 0,123.89838 0.013,163.35238 0,202.80838 c 0,4.724 0.991,8.909 2.988,12.517 2.053,3.711 5.169,6.813 9.386,9.254 20.206,11.703 88.02,50.547 101.56,58.536 9.106,5.373 17.997,5.565 27.17,0.269 34.015,-19.64 68.075,-39.198 102.105,-58.817 4.217,-2.44 7.333,-5.544 9.386,-9.252 1.994,-3.608 2.987,-7.793 2.987,-12.518 0,0 0,-78.889 -0.013,-118.345004"
         fill="#a179dc"
         fill-rule="nonzero"
         id="path1" /><path
         d="m 128.182,143.24138 -125.194,72.084 c 2.053,3.711 5.169,6.813 9.386,9.254 20.206,11.703 88.02,50.547 101.56,58.536 9.106,5.373 17.997,5.565 27.17,0.269 34.015,-19.64 68.075,-39.198 102.105,-58.817 4.217,-2.44 7.333,-5.544 9.386,-9.252 l -124.413,-72.074"
         fill="#280068"
         fill-rule="nonzero"
         id="path2" /><path
         d="m 255.569,84.452376 c -0.002,-4.83 -1.035,-9.098 -3.124,-12.761 l -124.263,71.550004 124.413,72.074 c 1.994,-3.608 2.985,-7.793 2.987,-12.518 0,0 0,-78.889 -0.013,-118.345004"
         fill="#390091"
         fill-rule="nonzero"
         id="path3" /><path
         d="m 201.89233,116.29401 v 13.47368 h 13.47368 v -13.47368 h 6.73684 v 13.47368 h 13.47369 v 6.73684 h -13.47369 v 13.47369 h 13.47369 v 6.73684 h -13.47369 v 13.47368 h -6.73684 v -13.47368 h -13.47368 v 13.47368 h -6.73685 V 156.71506 H 181.6818 v -6.73684 h 13.47368 V 136.50453 H 181.6818 v -6.73684 h 13.47368 v -13.47368 z m 13.47368,20.21052 h -13.47368 v 13.47369 h 13.47368 z"
         fill="#ffffff"
         id="path4" /><path
         d="m 128.45675,48.625876 c 35.14377,0 65.82713,19.086298 82.26181,47.456067 l -0.16037,-0.273067 -41.34857,23.808284 C 161.06296,105.82355 146.12814,96.515072 128.99638,96.323372 l -0.53963,-0.003 c -26.12557,0 -47.306079,21.179388 -47.306079,47.304968 0,8.54361 2.277774,16.5522 6.238976,23.46947 8.154098,14.23525 23.482903,23.83661 41.067103,23.83661 17.69277,0 33.10889,-9.72336 41.22157,-24.11084 l -0.19713,0.34532 41.28649,23.91803 c -16.2544,28.12956 -46.51741,47.15695 -81.2527,47.53619 l -1.05823,0.006 c -35.25458,0 -66.025247,-19.20383 -82.41851,-47.72358 -8.002993,-13.92297 -12.582048,-30.06439 -12.582048,-47.27698 0,-52.466058 42.532268,-94.999446 95.000558,-94.999446 z"
         fill="#ffffff"
         fill-rule="nonzero"
         id="path5" /></g><g
       id="g2"
       transform="matrix(0.03704453,0,0,0.03704453,64.045279,61.385877)"><path
         fill="#f0db4f"
         d="M 0,0 H 1052 V 1052 H 0 Z"
         id="path1-6" /><path
         d="m 965.9,801.1 c -7.7,-48 -39,-88.3 -131.7,-125.9 -32.2,-14.8 -68.1,-25.399 -78.8,-49.8 -3.8,-14.2 -4.3,-22.2 -1.9,-30.8 6.9,-27.9 40.2,-36.6 66.6,-28.6 17,5.7 33.1,18.801 42.8,39.7 45.4,-29.399 45.3,-29.2 77,-49.399 -11.6,-18 -17.8,-26.301 -25.4,-34 -27.3,-30.5 -64.5,-46.2 -124,-45 -10.3,1.3 -20.699,2.699 -31,4 -29.699,7.5 -58,23.1 -74.6,44 -49.8,56.5 -35.6,155.399 25,196.1 59.7,44.8 147.4,55 158.6,96.9 10.9,51.3 -37.699,67.899 -86,62 -35.6,-7.4 -55.399,-25.5 -76.8,-58.4 -39.399,22.8 -39.399,22.8 -79.899,46.1 9.6,21 19.699,30.5 35.8,48.7 76.2,77.3 266.899,73.5 301.1,-43.5 1.399,-4.001 10.6,-30.801 3.199,-72.101 z m -394,-317.6 h -98.4 c 0,85 -0.399,169.4 -0.399,254.4 0,54.1 2.8,103.7 -6,118.9 -14.4,29.899 -51.7,26.2 -68.7,20.399 -17.3,-8.5 -26.1,-20.6 -36.3,-37.699 -2.8,-4.9 -4.9,-8.7 -5.601,-9 -26.699,16.3 -53.3,32.699 -80,49 13.301,27.3 32.9,51 58,66.399 37.5,22.5 87.9,29.4 140.601,17.3 34.3,-10 63.899,-30.699 79.399,-62.199 22.4,-41.3 17.6,-91.3 17.4,-146.6 0.5,-90.2 0,-180.4 0,-270.9 z"
         fill="#323330"
         id="path2-7" /></g><g
       id="g7"
       transform="matrix(1.5686235,0,0,1.568635,-16.309328,-34.412484)"><path
         style="fill:#ffffff;fill-opacity:1;stroke:#000000;stroke-opacity:1"
         d="m 23.241679,65.493059 a 2,2 0 0 0 -2,2 v 12 a 2,2 0 0 0 2,2 h 12 a 2,2 0 0 0 2,-2 v -12 a 2,2 0 0 0 -2,-2 z"
         id="path6" /><path
         d="m 29.241679,69.493059 a 0.5,0.5 0 0 1 0.5,0.5 v 3 h 3 a 0.5,0.5 0 0 1 0,1 h -3 v 3 a 0.5,0.5 0 0 1 -1,0 v -3 h -3 a 0.5,0.5 0 0 1 0,-1 h 3 v -3 a 0.5,0.5 0 0 1 0.5,-0.5 z"
         id="path2-9"
         style="fill:#000000;fill-opacity:1" /></g><g
       id="g8"
       transform="translate(10.194911,-17.755048)"><path
         style="fill:#ffffff;fill-opacity:1;stroke:#000000;stroke-width:1.56863;stroke-opacity:1"
         d="m 63.924025,33.816419 a 3.1372551,3.1372552 0 0 0 -3.137254,3.137255 v 18.823531 a 3.1372551,3.1372552 0 0 0 3.137254,3.137256 h 18.82353 A 3.1372551,3.1372552 0 0 0 85.88481,55.777205 V 36.953674 a 3.1372551,3.1372552 0 0 0 -3.137255,-3.137255 z"
         id="path6-7" /><path
         d="m 67.061279,46.365439 a 0.78431377,0.7843138 0 0 1 0.784313,-0.784313 H 78.82599 a 0.78431397,0.784314 0 0 1 0,1.568628 H 67.845592 a 0.78431377,0.7843138 0 0 1 -0.784313,-0.784315 z"
         id="path2-5"
         style="fill:#000000;stroke-width:1.56863" /></g></g></svg>
