<?xml version="1.0" encoding="UTF-8"?>
<svg id="svg" version="1.1" viewBox="694 197 2e3 400" xmlns="http://www.w3.org/2000/svg">
 <g id="logo" transform="matrix(.558 0 0 .558 68.3 1050)">
  <path d="m1408-1182c-7.5 1-12.7 7.8-11.7 15.3 0.7 5.4 4.6 9.9 9.9 11.3 0 0 33.2 11 89.7 15.6 45.4 3.7 96.9-3.2 96.9-3.2 7.5-0.2 13.5-6.5 13.2-14s-6.5-13.5-14-13.2c-0.9 0-1.8 0.1-2.6 0.3 0 0-50.4 6.2-91.3 2.9-54-4.4-83.4-14.3-83.4-14.3-2.2-0.7-4.5-1-6.7-0.7zm0-67.6c-7.5 1-12.7 7.8-11.7 15.3 0.7 5.4 4.6 9.9 9.9 11.3 0 0 33.2 11 89.7 15.6 45.4 3.7 96.9-3.2 96.9-3.2 7.5-0.2 13.5-6.5 13.2-14s-6.5-13.5-14-13.2c-0.9 0-1.8 0.1-2.6 0.3 0 0-50.4 6.2-91.3 2.9-54-4.4-83.4-14.3-83.4-14.3-2.2-0.7-4.5-1-6.7-0.7zm0-67.6c-7.5 1-12.7 7.8-11.7 15.3 0.7 5.4 4.6 9.9 9.9 11.3 0 0 33.2 11 89.7 15.6 45.4 3.7 96.9-3.2 96.9-3.2 7.5-0.2 13.5-6.5 13.2-14s-6.5-13.5-14-13.2c-0.9 0-1.8 0.1-2.6 0.3 0 0-50.4 6.2-91.3 2.9-54-4.4-83.4-14.3-83.4-14.3-2.2-0.7-4.5-1-6.7-0.7zm0-67.5c-7.5 1-12.7 7.8-11.7 15.3 0.7 5.4 4.6 9.9 9.9 11.3 0 0 33.2 11 89.7 15.6 45.4 3.7 96.9-3.2 96.9-3.2 7.5-0.2 13.5-6.5 13.2-14s-6.5-13.5-14-13.2c-0.9 0-1.8 0.1-2.6 0.3 0 0-50.4 6.2-91.3 2.9-54-4.4-83.4-14.3-83.4-14.3-2.2-0.8-4.5-1-6.7-0.7zm-94.7-71.3c-71 0.5-97.5 22.3-97.5 22.3v530s25.8-22.3 109-18.9 100 32.6 202 34.6c102 2.1 128-15.7 128-15.7l1.5-541s-46 13-136 13.7-111-22.8-193-25.5c-5.1-0.1-10-0.2-14.7-0.2zm59.4 34.6s43 14.2 122 18.2c67.2 3.3 134-6.6 134-6.6v480s-34.1 17.9-119 11.8c-66-4.7-139-29.7-139-29.7l1-474zm-41.5 12.5c7.6 0 13.7 6.2 13.7 13.7s-6.2 13.7-13.7 13.7c0 0-22.3 0.1-35.8 1.5-22.8 2.3-38.3 10.6-38.3 10.6-6.7 3.5-15 1-18.5-5.7s-1-15 5.7-18.5c0 0 20.2-10.7 48.4-13.5 16.3-1.7 38.5-1.8 38.5-1.8zm-13.2 67.8c7.6-0.2 13.3 0 13.3 0 7.5 0.9 12.9 7.8 12 15.3-0.8 6.3-5.7 11.2-12 12 0 0-22.3 0.1-35.8 1.5-22.8 2.3-38.3 10.6-38.3 10.6-6.7 3.5-15 0.9-18.5-5.8s-0.9-15 5.8-18.5c0 0 20.2-10.7 48.4-13.5 7.9-0.9 17.5-1.4 25.1-1.6zm13.2 67.5c7.6 0 13.7 6.2 13.7 13.7 0 7.6-6.2 13.7-13.7 13.7 0 0-22.3-0.1-35.8 1.2-22.8 2.3-38.3 10.6-38.3 10.6-6.7 3.5-15 0.9-18.5-5.8s-0.9-15 5.8-18.5c0 0 20.2-10.7 48.4-13.5 16.2-1.5 38.4-1.4 38.4-1.4z" fill="#fcfcfc"/>
 </g>
 <g id="text">
  <g fill="#fcfcfc">
   <path d="m1129 492v-21.9l8.9-0.8c5.2-0.5 7.8-3.1 7.8-7.6v-126l-15.4-0.8v-23h73.8c20.9 0 36.9 3.9 48.1 11.6s16.8 20.5 16.8 38.1c0 12.3-3.2 22.3-9.7 30.3-6.3 7.9-13.9 13.7-22.7 17.3 6.5 2.3 11.6 7.8 15.4 16.5l19.5 42.4 15.4 0.5v23h-66.8v-21.9l7.8-0.8c4.1-0.5 6.2-2.2 6.2-4.9 0-1.1-0.4-2.3-1.1-3.8l-12.7-27c-2-4.5-4.2-7.7-6.8-9.5-2.3-2-5.8-3-10.3-3h-24.6v47l17.6 0.8v23l-67.2 0.1m49.7-96.5h23.5c22.2 0 33.2-9.9 33.2-29.7 0-11.4-3-18.7-8.9-22.2-5.8-3.4-15.1-5.1-28.1-5.1h-19.7v57"/>
   <path d="m1356 352c13.5 0 24.2 3.3 32.2 10 7.9 6.5 11.9 15.7 11.9 27.6 0 7.9-1.7 15-5.1 21.1-3.4 5.9-7.7 10.6-12.7 14.1-5 3.4-11.2 6.2-18.4 8.4-12.1 3.6-25.7 5.4-40.8 5.4 0.5 9.5 3.5 17.3 8.9 23.2 5.4 5.8 13.7 8.6 24.9 8.6s22.3-4 33.5-11.9l10.3 21.9c-3.6 3.2-9.7 6.6-18.4 10-8.5 3.4-18.2 5.1-29.2 5.1-22 0-38.1-6-48.4-18.1-10.3-12.3-15.4-29-15.4-50.3s5.9-39.1 17.6-53.5c11.6-14.4 28-21.6 49.1-21.6m-12.4 61.9c6.7-1.3 12.8-3.9 18.4-7.8 5.6-4.1 8.4-9 8.4-14.6 0-11-5.4-16.5-16.2-16.5-10.1 0-17.8 4.1-23.2 12.2-5.4 7.9-8.4 17.5-8.9 28.6 7.8-0.2 15-0.8 21.5-1.9"/>
   <path d="m1530 361v100c0 2.9 0.5 4.9 1.4 5.9 1.1 1.1 2.9 1.7 5.4 1.9l8.6 0.5v21.6h-43v-15.7l-0.8-0.3c-9 13-21.4 19.5-37 19.5-18.4 0-32-5.9-40.8-17.6s-13.2-27.7-13.2-48.1c0-24.5 5.9-43.6 17.8-57.3s29.7-20.5 53.5-20.5c15.3 0.1 31.4 3.3 48.1 9.6m-31.3 87.5v-70c-5-2.3-12-3.5-20.8-3.5-12.1 0-20.8 4.9-26.2 14.6s-8.1 22.6-8.1 38.7c0 29.2 9.4 43.8 28.1 43.8 7.9 0 14.4-2.3 19.5-7 4.9-4.9 7.5-10.4 7.5-16.6"/>
   <path d="m1616 352c7.7 0 15.1 1.1 22.2 3.2v-27.3c0-4-2.3-6.1-7-6.5l-11.6-0.8v-21.4h50.3v164c0.2 4.1 2.4 6.2 6.8 6.2l9.5 0.5v21.6h-43.8v-15.7l-0.8-0.3c-8.1 13.2-20.4 19.7-36.8 19.7-20.5 0-35-6.8-43.2-20.5-7.6-12.4-11.4-27.7-11.4-45.7 0-23.4 5.8-42.2 17.3-56.2 11.5-14.1 27.7-21.1 48.5-21.1m22.1 97.9v-70c-6.5-2.9-13.3-4.3-20.5-4.3-11.9 0-20.6 4.8-26.2 14.3-5.4 9.6-8.1 21.7-8.1 36.5 0 30.3 9.7 45.4 29.2 45.4 7.4 0 13.5-2.1 18.4-6.2 4.8-4.4 7.2-9.6 7.2-15.7"/>
   <path d="m1792 471s-12.5 4.7-19.2 4.7-9.2-3.3-9.2-11.8c0-3.8 0.5-8.8 1.4-14.9l10.2-63.1h32.6l2.8-17.7h-32.6l5.7-34.5-23.4 4.7-4.7 29.8-23.6 2.4-2.6 15.4h23.4l-10.5 65.4c-0.9 5.4-1.4 10.6-1.4 15.1 0 18.7 7.8 28.1 23.9 28.1 13.2 0 31-10.9 31-10.9l-3.8-12.7"/>
   <path d="m1865 310-43.3 1.2-2.1 13 19.9 4.7-26 163h22.5l7.8-42.6s18.7-65 49.4-65c9.5 0 12.3 6.9 12.3 15.6 0 3.3-0.5 6.9-0.9 10.4l-13.5 81.6 43.3-2.4 2.1-13-19.9-3.5 10.6-66.2c0.7-5 1.2-9.7 1.2-14 0-17-6.9-28.6-25.8-28.6-35.9 0-54.9 45.6-55.8 48.2l18.2-103"/>
   <path d="m2035 465s-21.5 10.6-38.8 10.6c-17.7 0-26-7.8-26-24.6 0-3.1 0.2-6.6 0.7-10.2 49 0 83-18.4 83-45.6 0-18.7-15.1-30.7-39-30.7-37.6 0-68.3 38.5-68.3 87.5 0 26 16.6 42.6 42.6 42.6 27.9 0 53-17.5 53-17.5l-7.2-12.1m-62-40.7c6.1-24.8 23.4-42.1 40.7-42.1 12.1 0 17.7 5 17.7 15.4 0.1 15.6-24.8 26.7-58.4 26.7"/>
   <path d="m2094 492v-21.9l8.9-0.8c5.2-0.5 7.8-3.1 7.8-7.6v-126l-15.4-0.8v-23h74.1c26.5 0 47.1 7 61.9 21.1 15 14.1 22.4 34.9 22.4 62.4 0 17.1-2.3 32.1-6.8 44.9-4.5 12.6-10.6 22.5-18.4 29.7-15.5 14.4-34.8 21.6-57.8 21.6h-76.7m49.7-154v128h27.6c15.5 0 27.6-5.6 36.2-16.8s13-27.4 13-48.7c0-41.4-17.6-62.2-52.7-62.2h-24.1"/>
   <path d="m2330 472c19.6 0 29.5-15.9 29.5-47.6 0-16-2.3-28.2-6.8-36.5-4.3-8.3-11.7-12.4-22.2-12.4-10.3 0-17.8 4-22.7 11.9s-7.3 18.7-7.3 32.4c0 25.4 4.7 41.4 14.1 47.8 4.2 2.9 9.3 4.4 15.4 4.4m-62.1-48.4c0-13.3 2-24.9 5.9-34.6 4-9.9 9.3-17.5 15.9-22.7 12.8-9.7 26.9-14.6 42.4-14.6 10.8 0 19.9 1.8 27.3 5.4 7.6 3.4 13.4 7.5 17.6 12.2 4.3 4.5 7.9 11.2 10.8 20 3.1 8.6 4.6 18.9 4.6 30.8 0 24.9-6 43.7-18.1 56.5s-27.6 19.2-46.5 19.2c-18.7 0-33.4-6-44.1-18.1-10.5-12.3-15.8-30.3-15.8-54.1"/>
   <path d="m2438 422c0 15.3 2.9 27.2 8.6 35.7 5.8 8.5 14.1 12.7 24.9 12.7 11 0 21.8-3.9 32.4-11.6l11.6 20.8c-12.8 10.5-28.8 15.7-48.1 15.7s-34.5-6-45.7-18.1c-11-12.3-16.5-30.3-16.5-54.1s6.3-41.6 18.9-53.5c12.8-12.1 27.1-18.1 43-18.1 16 0 30.9 3.7 44.6 11.1v35.1l-24.9 1.9v-13c0-4.9-1.8-7.8-5.4-8.9-3.4-1.3-7-1.9-10.8-1.9-21.7-0.1-32.6 15.3-32.6 46.2"/>
   <path d="m2593 376c-4.3-1.6-9.6-2.4-15.7-2.4s-11.1 1.4-14.9 4.3c-3.6 2.7-5.4 6.1-5.4 10.3 0 4 0.6 7.1 1.9 9.5 1.4 2.2 3.6 4.1 6.5 5.7 4.5 2.3 9.9 4.4 16.2 6.2 6.3 1.6 11 3 14.1 4.1 3.1 0.9 6.8 2.5 11.4 4.9 4.7 2.3 8.2 4.9 10.5 7.6 6.3 6.7 9.5 15.2 9.5 25.7 0 13.5-5 24.1-14.9 31.9-9.7 7.6-22.2 11.4-37.3 11.4-22 0-38.6-2.8-49.7-8.4v-37.6l24.3-1.9v13c0 7.9 7.6 11.9 22.7 11.9s22.7-5.5 22.7-16.5c0-4-1.4-7.2-4.1-9.7-2.5-2.5-5-4.2-7.6-5.1-2.5-0.9-5.6-1.8-9.2-2.7-3.4-0.9-6.8-1.8-10.3-2.7-3.2-0.9-6.8-2.1-10.8-3.5-3.8-1.6-8-3.9-12.7-6.8-9.2-5.9-13.8-15.9-13.8-29.7 0-14.1 5-24.9 14.9-32.4 9.9-7.6 22.3-11.4 37.3-11.4 15.1 0 30.1 3.6 44.9 10.8v32.4l-24.3 1.9v-11.4c0-4.7-2.1-7.8-6.2-9.4"/>
  </g>
 </g>
 <div id="saka-gui-root">
  <div>
   <div>
    <style/>
   </div>
  </div>
 </div>
</svg>
